# Blender 3.1.0
# www.blender.org
o Brick
v -0.224967 -0.050000 0.074967
v -0.224967 -0.024967 0.100000
v -0.250000 -0.024967 0.074967
v -0.224967 0.024967 0.100000
v -0.224967 0.050000 0.074967
v -0.250000 0.024967 0.074967
v -0.224967 -0.050000 -0.074967
v -0.250000 -0.024967 -0.074967
v -0.224967 -0.024967 -0.100000
v -0.224967 0.050000 -0.074967
v -0.224967 0.024967 -0.100000
v -0.250000 0.024967 -0.074967
v 0.224967 -0.050000 0.074967
v 0.250000 -0.024967 0.074967
v 0.224967 -0.024967 0.100000
v 0.224967 0.050000 0.074967
v 0.224967 0.024967 0.100000
v 0.250000 0.024967 0.074967
v 0.224967 -0.050000 -0.074967
v 0.224967 -0.024967 -0.100000
v 0.250000 -0.024967 -0.074967
v 0.224967 0.050000 -0.074967
v 0.250000 0.024967 -0.074967
v 0.224967 0.024967 -0.100000
vn -0.0000 -0.0000 1.0000
vn 1.0000 -0.0000 -0.0000
vn -0.0000 1.0000 -0.0000
vn -1.0000 -0.0000 -0.0000
vn -0.0000 -0.0000 -1.0000
vn -0.5773 -0.5774 0.5774
vn -0.5773 0.5774 0.5774
vn -0.5773 -0.5774 -0.5774
vn -0.5773 0.5774 -0.5774
vn 0.5773 -0.5774 0.5774
vn 0.5773 0.5774 0.5774
vn 0.5773 -0.5774 -0.5774
vn 0.5773 0.5774 -0.5774
vn -0.7071 -0.7071 -0.0000
vn -0.7071 -0.0000 0.7071
vn -0.7071 0.7071 -0.0000
vn -0.7071 -0.0000 -0.7071
vn -0.0000 -0.7071 -0.7071
vn -0.0000 0.7071 -0.7071
vn 0.7071 -0.0000 -0.7071
vn 0.7071 -0.7071 -0.0000
vn 0.7071 0.7071 -0.0000
vn 0.7071 -0.0000 0.7071
vn -0.0000 -0.7071 0.7071
vn -0.0000 0.7071 0.7071
vn -0.0000 -1.0000 -0.0000
vt 0.137517 0.718709
vt 0.437583 0.000000
vt 0.437583 0.987483
vt 0.137517 0.750000
vt 0.125000 0.718709
vt 0.437583 0.031291
vt 0.562417 0.000000
vt 0.562417 0.987483
vt 0.625000 0.031291
vt 0.862483 0.718709
vt 0.625000 0.987483
vt 0.562417 1.000000
vt 0.562417 0.031291
vt 0.137517 0.531291
vt 0.125000 0.531291
vt 0.437583 0.218709
vt 0.437583 0.262517
vt 0.137517 0.500000
vt 0.625000 0.262517
vt 0.862483 0.531291
vt 0.625000 0.218709
vt 0.625000 0.262517
vt 0.562417 0.262517
vt 0.562417 0.250000
vt 0.562417 0.218709
vt 0.362483 0.718709
vt 0.375000 0.718709
vt 0.437583 0.718709
vt 0.437583 0.762517
vt 0.362483 0.750000
vt 0.625000 0.762517
vt 0.637516 0.718709
vt 0.625000 0.762517
vt 0.562417 0.762517
vt 0.562417 0.750000
vt 0.562417 0.718709
vt 0.362483 0.531291
vt 0.362483 0.500000
vt 0.437583 0.487483
vt 0.375000 0.531291
vt 0.437583 0.531291
vt 0.625000 0.531291
vt 0.637516 0.531291
vt 0.625000 0.487483
vt 0.562417 0.500000
vt 0.562417 0.531291
vt 0.562417 0.500000
vt 0.562417 0.487483
s 0
f 17/34/1 2/3/1 15/29/1
f 23/46/2 14/28/2 21/41/2
f 10/20/3 16/32/3 22/43/3
f 6/13/4 8/16/4 3/6/4
f 11/23/5 20/39/5 9/17/5
f 1/1/6 2/4/6 3/5/6
f 4/8/7 5/11/7 6/12/7
f 7/14/8 8/15/8 9/18/8
f 10/19/9 11/22/9 12/24/9
f 13/26/10 14/27/10 15/30/10
f 16/31/11 17/33/11 18/35/11
f 19/37/12 20/38/12 21/40/12
f 22/42/13 23/45/13 24/47/13
f 1/1/14 8/15/14 7/14/14
f 4/7/15 3/6/15 2/2/15
f 10/21/16 6/13/16 5/9/16
f 9/17/17 12/25/17 11/23/17
f 7/14/18 20/38/18 19/37/18
f 22/44/19 11/23/19 10/19/19
f 21/41/20 24/48/20 23/46/20
f 19/37/21 14/28/21 13/26/21
f 16/32/22 23/46/22 22/43/22
f 15/29/23 18/36/23 17/34/23
f 13/26/24 2/4/24 1/1/24
f 5/11/25 17/34/25 16/31/25
f 19/37/26 1/1/26 7/14/26
f 17/34/1 4/8/1 2/3/1
f 23/46/2 18/36/2 14/28/2
f 10/20/3 5/10/3 16/32/3
f 6/13/4 12/25/4 8/16/4
f 11/23/5 24/48/5 20/39/5
f 1/1/14 3/5/14 8/15/14
f 4/7/15 6/13/15 3/6/15
f 10/21/16 12/25/16 6/13/16
f 9/17/17 8/16/17 12/25/17
f 7/14/18 9/18/18 20/38/18
f 22/44/19 24/48/19 11/23/19
f 21/41/20 20/39/20 24/48/20
f 19/37/21 21/41/21 14/28/21
f 16/32/22 18/36/22 23/46/22
f 15/29/23 14/28/23 18/36/23
f 13/26/24 15/30/24 2/4/24
f 5/11/25 4/8/25 17/34/25
f 19/37/26 13/26/26 1/1/26
