# Blender 3.1.0
# www.blender.org
o Cube
v -0.555900 -0.050000 0.073204
v -0.540938 -0.023204 0.100000
v -0.585784 -0.023204 0.080194
v -0.540938 0.023204 0.100000
v -0.555900 0.050000 0.073204
v -0.585784 0.023204 0.080194
v -0.689325 -0.050000 -0.073204
v -0.731951 -0.023204 -0.080194
v -0.723204 -0.023204 -0.100000
v -0.689325 0.050000 -0.073204
v -0.723204 0.023204 -0.100000
v -0.731951 0.023204 -0.080194
v 0.555900 -0.050000 0.073204
v 0.585784 -0.023204 0.080194
v 0.540938 -0.023204 0.100000
v 0.555900 0.050000 0.073204
v 0.540938 0.023204 0.100000
v 0.585784 0.023204 0.080194
v 0.689325 -0.050000 -0.073204
v 0.723204 -0.023204 -0.100000
v 0.731951 -0.023204 -0.080194
v 0.689325 0.050000 -0.073204
v 0.731951 0.023204 -0.080194
v 0.723204 0.023204 -0.100000
vn -0.0000 -0.0000 1.0000
vn 0.7391 -0.0000 0.6736
vn -0.0000 1.0000 -0.0000
vn -0.7391 -0.0000 0.6736
vn -0.0000 -0.0000 -1.0000
vn -0.3326 -0.5675 0.7532
vn -0.3326 0.5675 0.7532
vn -0.4935 -0.8420 -0.2180
vn -0.4935 0.8420 -0.2180
vn 0.3326 -0.5675 0.7532
vn 0.3326 0.5675 0.7532
vn 0.4935 -0.8420 -0.2180
vn 0.4935 0.8420 -0.2180
vn -0.5226 -0.7071 0.4763
vn -0.4040 -0.0000 0.9148
vn -0.5226 0.7071 0.4763
vn -0.9148 -0.0000 -0.4040
vn -0.0000 -0.7071 -0.7071
vn -0.0000 0.7071 -0.7071
vn 0.9148 -0.0000 -0.4040
vn 0.5226 -0.7071 0.4763
vn 0.5226 0.7071 0.4763
vn 0.4040 -0.0000 0.9148
vn -0.0000 -0.7071 0.7071
vn -0.0000 0.7071 0.7071
vn -0.0000 -1.0000 -0.0000
vt 0.131784 0.716504
vt 0.441991 0.000000
vt 0.130900 0.750000
vt 0.441991 0.994100
vt 0.125000 0.725243
vt 0.441991 0.024757
vt 0.558009 0.000000
vt 0.558009 0.994100
vt 0.625000 0.010934
vt 0.868216 0.716504
vt 0.625000 0.997394
vt 0.558009 1.000000
vt 0.558009 0.024757
vt 0.131212 0.533496
vt 0.125000 0.524757
vt 0.441991 0.225243
vt 0.441991 0.254466
vt 0.129466 0.500000
vt 0.625000 0.260113
vt 0.868788 0.533496
vt 0.625000 0.193943
vt 0.558009 0.250000
vt 0.558009 0.254466
vt 0.558009 0.250000
vt 0.558009 0.225243
vt 0.368216 0.716504
vt 0.375000 0.725243
vt 0.441991 0.725243
vt 0.441991 0.755900
vt 0.369100 0.750000
vt 0.631784 0.716504
vt 0.625000 0.752606
vt 0.558009 0.750000
vt 0.558009 0.755900
vt 0.558009 0.750000
vt 0.558009 0.725243
vt 0.368788 0.533496
vt 0.370534 0.500000
vt 0.441991 0.495534
vt 0.375000 0.524757
vt 0.441991 0.524757
vt 0.625000 0.556057
vt 0.625000 0.489887
vt 0.631212 0.533496
vt 0.558009 0.500000
vt 0.558009 0.524757
vt 0.558009 0.500000
vt 0.558009 0.495534
s 0
f 17/34/1 2/4/1 15/29/1
f 21/41/2 18/36/2 14/28/2
f 10/20/3 16/31/3 22/44/3
f 6/13/4 8/16/4 3/6/4
f 11/23/5 20/39/5 9/17/5
f 1/1/6 2/3/6 3/5/6
f 4/8/7 5/11/7 6/12/7
f 7/14/8 8/15/8 9/18/8
f 10/19/9 11/22/9 12/24/9
f 13/26/10 14/27/10 15/30/10
f 16/32/11 17/33/11 18/35/11
f 19/37/12 20/38/12 21/40/12
f 22/42/13 23/45/13 24/47/13
f 7/14/14 3/5/14 8/15/14
f 4/7/15 3/6/15 2/2/15
f 10/21/16 6/13/16 5/9/16
f 9/17/17 12/25/17 11/23/17
f 7/14/18 20/38/18 19/37/18
f 22/43/19 11/23/19 10/19/19
f 21/41/20 24/48/20 23/46/20
f 19/37/21 14/28/21 13/26/21
f 22/44/22 18/36/22 23/46/22
f 15/29/23 18/36/23 17/34/23
f 1/1/24 15/30/24 2/3/24
f 16/32/25 4/8/25 17/34/25
f 19/37/26 1/1/26 7/14/26
f 17/34/1 4/8/1 2/4/1
f 21/41/2 23/46/2 18/36/2
f 10/20/3 5/10/3 16/31/3
f 6/13/4 12/25/4 8/16/4
f 11/23/5 24/48/5 20/39/5
f 7/14/14 1/1/14 3/5/14
f 4/7/15 6/13/15 3/6/15
f 10/21/16 12/25/16 6/13/16
f 9/17/17 8/16/17 12/25/17
f 7/14/18 9/18/18 20/38/18
f 22/43/19 24/48/19 11/23/19
f 21/41/20 20/39/20 24/48/20
f 19/37/21 21/41/21 14/28/21
f 22/44/22 16/31/22 18/36/22
f 15/29/23 14/28/23 18/36/23
f 1/1/24 13/26/24 15/30/24
f 16/32/25 5/11/25 4/8/25
f 19/37/26 13/26/26 1/1/26
